<?xml version="1.0" encoding="UTF-8" standalone="no"?><!DOCTYPE svg PUBLIC "-//W3C//DTD SVG 1.1//EN" "http://www.w3.org/Graphics/SVG/1.1/DTD/svg11.dtd"><svg width="100%" height="100%" viewBox="0 0 57 57" version="1.1" xmlns="http://www.w3.org/2000/svg" xmlns:xlink="http://www.w3.org/1999/xlink" xml:space="preserve" xmlns:serif="http://www.serif.com/" style="fill-rule:evenodd;clip-rule:evenodd;stroke-linejoin:round;stroke-miterlimit:2;"><g><path d="M56.693,5.389l-0,45.862c-0,2.974 -2.415,5.389 -5.389,5.389l-45.915,-0c-2.974,-0 -5.389,-2.415 -5.389,-5.389l0,-45.862c0,-2.974 2.415,-5.389 5.389,-5.389l45.915,0c2.974,0 5.389,2.415 5.389,5.389Z"/></g><g><path d="M12.595,31.775c-0,-0.613 0.196,-1.13 0.587,-1.553c0.392,-0.423 0.915,-0.635 1.569,-0.635c0.658,0 1.183,0.212 1.575,0.635c0.392,0.423 0.588,0.94 0.588,1.553c-0,0.612 -0.196,1.129 -0.588,1.55c-0.392,0.421 -0.917,0.631 -1.575,0.631c-0.654,-0 -1.177,-0.21 -1.569,-0.631c-0.391,-0.421 -0.587,-0.938 -0.587,-1.55Zm-0.113,8.075c0,-0.613 0.195,-1.13 0.585,-1.553c0.389,-0.423 0.913,-0.635 1.572,-0.635c0.658,0 1.183,0.212 1.575,0.635c0.391,0.423 0.587,0.94 0.587,1.553c0,0.608 -0.196,1.124 -0.587,1.547c-0.392,0.423 -0.917,0.634 -1.575,0.634c-0.659,-0 -1.183,-0.211 -1.572,-0.634c-0.39,-0.423 -0.585,-0.939 -0.585,-1.547Z" style="fill:#fff;fill-rule:nonzero;stroke:#fff;stroke-width:0.6px;"/><path d="M25.718,28.603c0,-1.946 0,-10.468 0,-12.067c0,-0.149 0.111,-0.275 0.259,-0.295c0.375,-0.052 1.055,-0.143 1.316,-0.157c2.642,-0.141 3.879,0.512 7.074,2.227c2.844,1.526 5.58,2.085 8.208,1.676c0.087,-0.014 0.175,0.01 0.241,0.067c0.067,0.056 0.105,0.139 0.105,0.227c0,1.753 0,9.508 -0,11.017c-0,0.148 -0.108,0.273 -0.254,0.294c-3.235,0.472 -5.729,-0.223 -9.121,-1.647c-0.038,-0.016 -0.075,-0.037 -0.112,-0.055c-2.776,-1.331 -5.312,-1.534 -7.337,-1.001c-0.09,0.025 -0.186,0.007 -0.261,-0.049c-0.074,-0.056 -0.118,-0.144 -0.118,-0.237Z" style="fill:#fff;"/><path d="M25.718,28.603c0,0.093 0.044,0.181 0.118,0.237c0.075,0.056 0.171,0.074 0.261,0.049c2.025,-0.533 4.561,-0.33 7.337,1.001c0.037,0.018 0.074,0.039 0.112,0.055c3.392,1.424 5.886,2.119 9.121,1.647c0.146,-0.021 0.254,-0.146 0.254,-0.294c0,-1.509 0,-9.264 0,-11.017c0,-0.088 -0.038,-0.171 -0.105,-0.227c-0.066,-0.057 -0.154,-0.081 -0.241,-0.067c-2.628,0.409 -5.364,-0.15 -8.208,-1.676c-3.195,-1.715 -4.432,-2.368 -7.074,-2.227c-0.261,0.014 -0.941,0.105 -1.316,0.157c-0.148,0.02 -0.259,0.146 -0.259,0.295c0,1.599 0,10.121 0,12.067Zm-1.875,-13.121c0,-0.141 0.099,-0.263 0.238,-0.292c0.578,-0.12 2.012,-0.418 2.012,-0.418c3.203,-0.516 6.18,0.195 8.93,2.132c3.054,1.662 5.993,2.148 8.817,1.457c0.089,-0.022 0.183,-0.002 0.255,0.054c0.072,0.056 0.115,0.143 0.115,0.234c0.001,2.097 0.001,12.097 0.001,13.75c-0,0.137 -0.094,0.257 -0.227,0.289c-3.526,0.867 -6.872,0.531 -10.039,-1.006c-3.147,-1.528 -5.843,-1.847 -8.088,-0.956c-0.112,0.045 -0.185,0.154 -0.185,0.275c-0.001,1.314 -0.001,8.767 -0.001,10.355c0,0.165 -0.133,0.298 -0.297,0.298c-0.34,0 -0.893,0 -1.233,0c-0.164,0 -0.298,-0.133 -0.298,-0.298c0,-2.732 0,-23.399 0,-25.874Z" style="fill:#fff;fill-rule:nonzero;stroke:#fff;stroke-width:2px;"/></g></svg>