<?xml version="1.0" encoding="UTF-8" standalone="no"?><!DOCTYPE svg PUBLIC "-//W3C//DTD SVG 1.1//EN" "http://www.w3.org/Graphics/SVG/1.1/DTD/svg11.dtd"><svg width="100%" height="100%" viewBox="0 0 258 57" version="1.1" xmlns="http://www.w3.org/2000/svg" xmlns:xlink="http://www.w3.org/1999/xlink" xml:space="preserve" xmlns:serif="http://www.serif.com/" style="fill-rule:evenodd;clip-rule:evenodd;stroke-linejoin:round;stroke-miterlimit:2;"><g><path d="M56.693,5.441l-0,45.863c-0,2.974 -2.415,5.389 -5.389,5.389l-45.915,-0c-2.974,-0 -5.389,-2.415 -5.389,-5.389l0,-45.863c0,-2.974 2.415,-5.388 5.389,-5.388l45.915,-0c2.974,-0 5.389,2.414 5.389,5.388Z"/></g><g><path d="M12.595,31.828c-0,-0.613 0.196,-1.131 0.587,-1.553c0.392,-0.423 0.915,-0.635 1.569,-0.635c0.658,0 1.183,0.212 1.575,0.635c0.392,0.422 0.588,0.94 0.588,1.553c-0,0.612 -0.196,1.129 -0.588,1.55c-0.392,0.42 -0.917,0.631 -1.575,0.631c-0.654,-0 -1.177,-0.211 -1.569,-0.631c-0.391,-0.421 -0.587,-0.938 -0.587,-1.55Zm-0.113,8.075c0,-0.613 0.195,-1.131 0.585,-1.553c0.389,-0.423 0.913,-0.635 1.572,-0.635c0.658,0 1.183,0.212 1.575,0.635c0.391,0.422 0.587,0.94 0.587,1.553c0,0.608 -0.196,1.124 -0.587,1.547c-0.392,0.422 -0.917,0.634 -1.575,0.634c-0.659,-0 -1.183,-0.212 -1.572,-0.634c-0.39,-0.423 -0.585,-0.939 -0.585,-1.547Z" style="fill:#fff;fill-rule:nonzero;stroke:#fff;stroke-width:0.6px;"/><path d="M25.718,28.655c0,-1.945 0,-10.468 0,-12.066c0,-0.149 0.111,-0.275 0.259,-0.295c0.375,-0.052 1.055,-0.143 1.316,-0.157c2.642,-0.141 3.879,0.512 7.074,2.227c2.844,1.526 5.58,2.085 8.208,1.676c0.087,-0.014 0.175,0.01 0.241,0.067c0.067,0.056 0.105,0.139 0.105,0.227c0,1.753 0,9.508 -0,11.017c-0,0.147 -0.108,0.273 -0.254,0.294c-3.235,0.472 -5.729,-0.223 -9.121,-1.647c-0.038,-0.016 -0.075,-0.037 -0.112,-0.055c-2.776,-1.331 -5.312,-1.534 -7.337,-1.001c-0.09,0.025 -0.186,0.007 -0.261,-0.049c-0.074,-0.056 -0.118,-0.144 -0.118,-0.238Z" style="fill:#fff;"/><path d="M25.718,28.655c0,0.094 0.044,0.182 0.118,0.238c0.075,0.056 0.171,0.074 0.261,0.049c2.025,-0.533 4.561,-0.33 7.337,1.001c0.037,0.018 0.074,0.039 0.112,0.055c3.392,1.424 5.886,2.119 9.121,1.647c0.146,-0.021 0.254,-0.147 0.254,-0.294c0,-1.509 0,-9.264 0,-11.017c0,-0.088 -0.038,-0.171 -0.105,-0.227c-0.066,-0.057 -0.154,-0.081 -0.241,-0.067c-2.628,0.409 -5.364,-0.15 -8.208,-1.676c-3.195,-1.715 -4.432,-2.368 -7.074,-2.227c-0.261,0.014 -0.941,0.105 -1.316,0.157c-0.148,0.02 -0.259,0.146 -0.259,0.295c0,1.598 0,10.121 0,12.066Zm-1.875,-13.12c0,-0.141 0.099,-0.263 0.238,-0.292c0.578,-0.12 2.012,-0.418 2.012,-0.418c3.203,-0.516 6.18,0.195 8.93,2.132c3.054,1.662 5.993,2.148 8.817,1.457c0.089,-0.022 0.183,-0.002 0.255,0.054c0.072,0.056 0.115,0.143 0.115,0.234c0.001,2.097 0.001,12.097 0.001,13.75c-0,0.137 -0.094,0.256 -0.227,0.289c-3.526,0.867 -6.872,0.531 -10.039,-1.006c-3.147,-1.528 -5.843,-1.847 -8.088,-0.956c-0.112,0.045 -0.185,0.154 -0.185,0.275c-0.001,1.314 -0.001,8.767 -0.001,10.355c0,0.165 -0.133,0.298 -0.297,0.298c-0.34,0 -0.893,0 -1.233,0c-0.164,0 -0.298,-0.133 -0.298,-0.298c0,-2.732 0,-23.399 0,-25.874Z" style="fill:#fff;fill-rule:nonzero;stroke:#fff;stroke-width:2px;"/></g><g transform="matrix(1.7524,0,0,1.7524,-1541.97,-1769.43)"><g transform="matrix(38.4423,0,0,38.4423,923.614,1041.51)"><path d="M0.091,-0.387l0.106,0l0,0.38c-0.004,0.001 -0.011,0.002 -0.02,0.005c-0.009,0.002 -0.018,0.003 -0.028,0.003c-0.017,0 -0.031,-0.005 -0.042,-0.016c-0.011,-0.011 -0.016,-0.025 -0.016,-0.042l-0,-0.33Zm0.106,0.163l-0.106,0l-0,-0.326c0,-0.017 0.005,-0.031 0.016,-0.041c0.011,-0.011 0.025,-0.016 0.042,-0.016c0.01,0 0.019,0.001 0.028,0.003c0.009,0.002 0.016,0.004 0.02,0.005l0,0.375Zm-0.048,-0.043l-0,-0.087l0.301,0c0.003,0.004 0.005,0.01 0.008,0.017c0.003,0.007 0.004,0.015 0.004,0.024c0,0.015 -0.003,0.026 -0.011,0.034c-0.007,0.008 -0.016,0.012 -0.028,0.012l-0.274,0Zm0,0.268l0,-0.088l0.336,-0c0.003,0.004 0.005,0.01 0.008,0.017c0.003,0.008 0.004,0.016 0.004,0.025c0,0.015 -0.004,0.026 -0.011,0.034c-0.006,0.008 -0.016,0.012 -0.028,0.012l-0.309,-0Zm0,-0.52l0,-0.088l0.331,0c0.003,0.004 0.006,0.01 0.009,0.017c0.002,0.007 0.003,0.015 0.003,0.024c0,0.015 -0.004,0.026 -0.011,0.034c-0.007,0.009 -0.016,0.013 -0.028,0.013l-0.304,-0Zm0.125,-0.214l0.098,-0.094c0.018,-0 0.032,0.004 0.042,0.013c0.01,0.009 0.015,0.02 0.015,0.033c0,0.01 -0.002,0.019 -0.007,0.026c-0.004,0.007 -0.012,0.016 -0.024,0.025l-0.089,0.07c-0.017,-0.001 -0.029,-0.005 -0.038,-0.012c-0.009,-0.007 -0.014,-0.016 -0.014,-0.026c0,-0.007 0.001,-0.013 0.004,-0.019c0.003,-0.005 0.007,-0.011 0.013,-0.016Z" style="fill-rule:nonzero;"/></g><g transform="matrix(38.4423,0,0,38.4423,944.515,1041.51)"><path d="M0.24,-0.519l-0.004,-0.088l0.261,-0c0.003,0.004 0.005,0.009 0.008,0.017c0.002,0.008 0.004,0.016 0.004,0.025c-0,0.014 -0.004,0.026 -0.011,0.034c-0.007,0.008 -0.016,0.012 -0.029,0.012l-0.229,0Zm0.053,-0.088l0.003,0.088l-0.261,0c-0.003,-0.004 -0.006,-0.01 -0.008,-0.018c-0.003,-0.007 -0.004,-0.016 -0.004,-0.024c0,-0.016 0.004,-0.027 0.01,-0.035c0.007,-0.008 0.017,-0.011 0.029,-0.011l0.231,-0Zm-0.082,0.061l0.108,0l-0,0.544c-0.005,0.002 -0.012,0.003 -0.021,0.005c-0.009,0.002 -0.019,0.003 -0.029,0.003c-0.02,-0 -0.035,-0.004 -0.044,-0.012c-0.009,-0.008 -0.014,-0.02 -0.014,-0.038l0,-0.502Z" style="fill-rule:nonzero;"/></g><g transform="matrix(38.4423,0,0,38.4423,963.438,1041.51)"><path d="M0.304,-0.521l-0.004,0c-0.009,0.025 -0.02,0.055 -0.032,0.089c-0.011,0.034 -0.024,0.069 -0.036,0.106c-0.013,0.036 -0.025,0.071 -0.036,0.103l-0.01,0.043c-0.004,0.012 -0.008,0.026 -0.013,0.043c-0.005,0.017 -0.011,0.033 -0.017,0.051c-0.005,0.017 -0.011,0.033 -0.016,0.049c-0.005,0.015 -0.009,0.028 -0.012,0.038c-0.006,0.002 -0.012,0.004 -0.018,0.006c-0.007,0.001 -0.015,0.002 -0.024,0.002c-0.017,-0 -0.031,-0.004 -0.042,-0.011c-0.011,-0.008 -0.016,-0.019 -0.016,-0.034c0,-0.006 0.001,-0.014 0.003,-0.021c0.003,-0.007 0.005,-0.015 0.008,-0.024c0.007,-0.022 0.016,-0.05 0.028,-0.083c0.011,-0.033 0.024,-0.068 0.038,-0.107c0.013,-0.039 0.027,-0.078 0.042,-0.118c0.015,-0.04 0.029,-0.078 0.042,-0.114c0.014,-0.036 0.026,-0.067 0.037,-0.094c0.007,-0.004 0.017,-0.008 0.032,-0.011c0.014,-0.004 0.028,-0.006 0.043,-0.006c0.019,0 0.036,0.003 0.052,0.009c0.016,0.005 0.027,0.014 0.031,0.027c0.015,0.037 0.031,0.08 0.048,0.128c0.017,0.048 0.034,0.098 0.051,0.15c0.018,0.052 0.035,0.103 0.051,0.152c0.016,0.049 0.03,0.094 0.042,0.133c-0.005,0.007 -0.013,0.013 -0.023,0.017c-0.01,0.004 -0.022,0.007 -0.035,0.007c-0.018,-0 -0.031,-0.004 -0.039,-0.011c-0.009,-0.007 -0.016,-0.019 -0.021,-0.035l-0.046,-0.144l-0.012,-0.049c-0.011,-0.037 -0.023,-0.073 -0.035,-0.11c-0.012,-0.036 -0.024,-0.07 -0.034,-0.102c-0.011,-0.031 -0.02,-0.058 -0.027,-0.079Zm-0.167,0.369l0.038,-0.086l0.263,0l0.017,0.086l-0.318,0Z" style="fill-rule:nonzero;"/></g><g transform="matrix(38.4423,0,0,38.4423,984.842,1041.51)"><path d="M0.24,-0.519l-0.004,-0.088l0.261,-0c0.003,0.004 0.005,0.009 0.008,0.017c0.002,0.008 0.004,0.016 0.004,0.025c-0,0.014 -0.004,0.026 -0.011,0.034c-0.007,0.008 -0.016,0.012 -0.029,0.012l-0.229,0Zm0.053,-0.088l0.003,0.088l-0.261,0c-0.003,-0.004 -0.006,-0.01 -0.008,-0.018c-0.003,-0.007 -0.004,-0.016 -0.004,-0.024c0,-0.016 0.004,-0.027 0.01,-0.035c0.007,-0.008 0.017,-0.011 0.029,-0.011l0.231,-0Zm-0.082,0.061l0.108,0l-0,0.544c-0.005,0.002 -0.012,0.003 -0.021,0.005c-0.009,0.002 -0.019,0.003 -0.029,0.003c-0.02,-0 -0.035,-0.004 -0.044,-0.012c-0.009,-0.008 -0.014,-0.02 -0.014,-0.038l0,-0.502Z" style="fill-rule:nonzero;"/></g><g transform="matrix(22.8259,0,0,22.8259,1005.3,1041.51)"><path d="M0.018,-0.053c-0,-0.019 0.006,-0.035 0.018,-0.048c0.011,-0.013 0.028,-0.02 0.048,-0.02c0.021,0 0.037,0.007 0.049,0.02c0.012,0.013 0.017,0.029 0.017,0.048c0,0.019 -0.005,0.035 -0.017,0.048c-0.012,0.013 -0.028,0.019 -0.049,0.019c-0.02,0 -0.037,-0.006 -0.048,-0.019c-0.012,-0.013 -0.018,-0.029 -0.018,-0.048Z" style="fill-rule:nonzero;"/></g><g transform="matrix(22.8259,0,0,22.8259,1009.14,1041.51)"><path d="M0.062,-0.612c0,-0.017 0.006,-0.031 0.018,-0.043c0.013,-0.012 0.028,-0.018 0.046,-0.018c0.019,0 0.034,0.006 0.045,0.018c0.012,0.012 0.018,0.026 0.018,0.043c-0,0.017 -0.006,0.032 -0.018,0.044c-0.011,0.012 -0.026,0.018 -0.045,0.018c-0.018,-0 -0.033,-0.006 -0.046,-0.018c-0.012,-0.012 -0.018,-0.027 -0.018,-0.044Zm0.011,0.348l0.105,-0l0,0.262c-0.004,0.002 -0.011,0.003 -0.019,0.005c-0.009,0.002 -0.018,0.003 -0.028,0.003c-0.02,-0 -0.034,-0.004 -0.043,-0.011c-0.01,-0.007 -0.015,-0.02 -0.015,-0.037l0,-0.222Zm0.105,0.053l-0.105,-0l0,-0.254c0.005,-0.002 0.011,-0.003 0.02,-0.005c0.009,-0.002 0.019,-0.003 0.029,-0.003c0.019,0 0.034,0.004 0.043,0.011c0.009,0.007 0.013,0.02 0.013,0.038l0,0.213Z" style="fill-rule:nonzero;"/></g><g transform="matrix(22.8259,0,0,22.8259,1014.9,1041.51)"><path d="M0.518,-0.234c0,0.05 -0.009,0.094 -0.029,0.131c-0.019,0.037 -0.047,0.066 -0.082,0.086c-0.036,0.021 -0.078,0.031 -0.126,0.031c-0.047,-0 -0.089,-0.01 -0.125,-0.03c-0.036,-0.021 -0.063,-0.049 -0.083,-0.087c-0.019,-0.037 -0.029,-0.081 -0.029,-0.131c-0,-0.051 0.01,-0.095 0.03,-0.132c0.02,-0.037 0.047,-0.066 0.083,-0.086c0.036,-0.02 0.077,-0.03 0.125,-0.03c0.047,-0 0.088,0.01 0.124,0.03c0.035,0.021 0.063,0.049 0.083,0.086c0.019,0.037 0.029,0.081 0.029,0.132Zm-0.237,-0.164c-0.039,0 -0.071,0.015 -0.094,0.044c-0.024,0.029 -0.035,0.069 -0.035,0.12c-0,0.052 0.011,0.092 0.034,0.12c0.023,0.029 0.055,0.043 0.095,0.043c0.041,0 0.073,-0.014 0.095,-0.043c0.023,-0.029 0.035,-0.069 0.035,-0.12c-0,-0.051 -0.012,-0.091 -0.035,-0.12c-0.023,-0.029 -0.054,-0.044 -0.095,-0.044Z" style="fill-rule:nonzero;"/></g></g></svg>